HIERARCHY
ROOT SpineBase
{
  OFFSET 0.000000 0.000000 0.000000
  CHANNELS 6 Xposition Yposition Zposition Zrotation Xrotation Yrotation
  JOINT SpineMid
  {
    OFFSET 0.000000 31.486391 0.000000
    CHANNELS 3 Zrotation Xrotation Yrotation
    JOINT SpineShoulder
    {
      OFFSET 0.070614 23.346690 -0.785382
      CHANNELS 3 Zrotation Xrotation Yrotation
      JOINT Neck
      {
        OFFSET 0.057454 7.718125 -0.590098
        CHANNELS 3 Zrotation Xrotation Yrotation
        JOINT Head
        {
          OFFSET -5.486190 14.087818 -0.028347
          CHANNELS 3 Zrotation Xrotation Yrotation
          End Site
          {
            OFFSET 0 0 0
          }
        }
      }
      JOINT ShoulderLeft
      {
        OFFSET -17.618495 -4.619659 9.718030
        CHANNELS 3 Zrotation Xrotation Yrotation
        JOINT ElbowLeft
        {
          OFFSET 0.307842 -30.707968 1.196802
          CHANNELS 3 Zrotation Xrotation Yrotation
          JOINT WristLeft
          {
            OFFSET 0.129992 -23.547754 -5.580382
            CHANNELS 3 Zrotation Xrotation Yrotation
            JOINT HandLeft
            {
              OFFSET 0.595758 -5.267777 -1.473795
              CHANNELS 3 Zrotation Xrotation Yrotation
              JOINT HandTipLeft
              {
                OFFSET 1.573863 -8.279855 -1.837704
                CHANNELS 3 Zrotation Xrotation Yrotation
                End Site
                {
                  OFFSET 0 0 0
                }
              }
              JOINT ThumbLeft
              {
                OFFSET 3.973299 2.349669 -4.234486
                CHANNELS 3 Zrotation Xrotation Yrotation
                End Site
                {
                  OFFSET 0 0 0
                }
              }
            }
          }
        }
      }
      JOINT ShoulderRight
      {
        OFFSET 13.855076 -3.362807 -10.154614
        CHANNELS 3 Zrotation Xrotation Yrotation
        JOINT ElbowRight
        {
          OFFSET 8.267065 -26.563712 -1.737324
          CHANNELS 3 Zrotation Xrotation Yrotation
          JOINT WristRight
          {
            OFFSET -1.597147 -23.090218 -5.159537
            CHANNELS 3 Zrotation Xrotation Yrotation
            JOINT HandRight
            {
              OFFSET -2.071531 -6.908756 -0.529285
              CHANNELS 3 Zrotation Xrotation Yrotation
              JOINT HandTipRight
              {
                OFFSET -0.503874 -6.816238 -0.061680
                CHANNELS 3 Zrotation Xrotation Yrotation
                End Site
                {
                  OFFSET 0 0 0
                }
              }
              JOINT ThumbRight
              {
                OFFSET -2.326568 1.165989 0.284942
                CHANNELS 3 Zrotation Xrotation Yrotation
                End Site
                {
                  OFFSET 0 0 0
                }
              }
            }
          }
        }
      }
    }
  }
  JOINT HipLeft
  {
    OFFSET -6.317597 0.001738 0.608094
    CHANNELS 3 Zrotation Xrotation Yrotation
    JOINT KneeLeft
    {
      OFFSET 3.961958 -35.116386 3.198182
      CHANNELS 3 Zrotation Xrotation Yrotation
      JOINT AnkleLeft
      {
        OFFSET 7.489011 -37.191418 6.863834
        CHANNELS 3 Zrotation Xrotation Yrotation
        JOINT FootLeft
        {
          OFFSET -0.400255 -5.996241 -5.350466
          CHANNELS 3 Zrotation Xrotation Yrotation
          End Site
          {
            OFFSET 0 0 0
          }
        }
      }
    }
  }
  JOINT HipRight
  {
    OFFSET 7.067989 1.653190 -7.830649
    CHANNELS 3 Zrotation Xrotation Yrotation
    JOINT KneeRight
    {
      OFFSET 9.002533 -31.654881 0.867780
      CHANNELS 3 Zrotation Xrotation Yrotation
      JOINT AnkleRight
      {
        OFFSET 4.466310 -38.612934 7.674079
        CHANNELS 3 Zrotation Xrotation Yrotation
        JOINT FootRight
        {
          OFFSET -1.090460 -7.546908 -3.978990
          CHANNELS 3 Zrotation Xrotation Yrotation
          End Site
          {
            OFFSET 0 0 0
          }
        }
      }
    }
  }
}
MOTION
Frames: 14
Frame Time: 0.033333
-32.643512 80.001523 338.411922 3.593788 -3.316987 18.426416 -0.371765 0.040920 -18.190468 -0.151850 -0.017187 0.146173 -5.546477 0.738473 -1.141128 0.000000 0.000000 0.000000 -17.696387 -18.422655 -2.905245 12.013754 -13.969288 -1.735471 12.952975 -6.510145 -13.410863 -12.673441 15.591258 7.262280 0.000000 0.000000 0.000000 0.000000 0.000000 0.000000 30.477550 37.833866 -3.646683 -157.693315 9.275284 -8.685981 -34.484774 -70.480441 -130.649023 -98.620775 -39.957049 110.231589 0.000000 0.000000 0.000000 0.000000 0.000000 0.000000 -6.451717 0.914311 -18.810193 1.764322 3.862694 0.412236 -5.438758 2.834841 5.980117 0.000000 0.000000 0.000000 -4.154157 9.271803 -16.908320 1.405023 -6.474642 -1.760458 -4.567329 18.523330 2.375957 0.000000 0.000000 0.000000
-32.570679 80.073299 338.327642 3.379935 -3.383811 17.544568 -0.366733 0.040239 -17.319969 -0.151232 -0.021611 0.137677 -6.560561 0.814028 -1.083474 0.000000 0.000000 0.000000 -18.039078 -18.753156 -3.031638 13.815095 -13.633765 -2.322183 9.714554 -0.410439 -10.792416 -17.058781 1.904878 8.261580 0.000000 0.000000 0.000000 0.000000 0.000000 0.000000 27.648984 39.039970 -2.361299 -156.651239 9.148223 -10.867778 -31.174393 -71.848603 -130.555988 -103.722438 -45.662234 117.582855 0.000000 0.000000 0.000000 0.000000 0.000000 0.000000 -6.425526 0.707484 -17.973184 2.005141 4.031451 0.448823 -5.608779 5.516673 5.870537 0.000000 0.000000 0.000000 -4.514933 9.304237 -15.997566 1.924343 -6.369326 -1.692695 -7.896419 26.998716 3.793051 0.000000 0.000000 0.000000
-32.506896 80.148002 338.271705 3.239620 -3.398443 16.827254 -0.354300 0.031987 -16.611086 -0.149300 -0.028346 0.132616 -7.703885 0.844131 -1.030566 0.000000 0.000000 0.000000 -17.605963 -18.637078 -2.952016 14.025701 -9.599230 -2.333003 6.372723 2.094576 -7.490214 -19.243617 -5.173223 6.989109 0.000000 0.000000 0.000000 0.000000 0.000000 0.000000 24.127798 39.828039 -0.750702 -155.641244 9.105798 -12.228362 -29.896833 -72.954979 -133.048848 -105.967082 -46.809525 115.333610 0.000000 0.000000 0.000000 0.000000 0.000000 0.000000 -6.417268 0.477842 -17.295807 2.134269 4.239274 0.485142 -5.186354 7.036672 5.331884 0.000000 0.000000 0.000000 -4.880689 9.275826 -15.262480 2.355317 -6.251879 -1.632230 -11.104639 34.969888 5.479708 0.000000 0.000000 0.000000
-32.445173 80.196849 338.252728 3.127173 -3.399440 16.273028 -0.345580 0.018526 -16.063796 -0.147698 -0.035986 0.128632 -8.615694 0.985447 -0.933956 0.000000 0.000000 0.000000 -16.229681 -19.489802 -2.834881 11.798707 -0.216617 -1.568574 2.477899 4.759945 -3.348503 -11.049129 -1.326687 2.796326 0.000000 0.000000 0.000000 0.000000 0.000000 0.000000 20.491414 40.292561 0.925713 -154.882835 9.159153 -12.898042 -27.207633 -73.710701 -133.760727 -102.337616 -46.639983 102.982222 0.000000 0.000000 0.000000 0.000000 0.000000 0.000000 -6.383224 0.338878 -16.766330 2.206860 4.342267 0.504281 -4.405332 9.293615 4.465565 0.000000 0.000000 0.000000 -5.210139 9.256497 -14.689821 2.710727 -6.116257 -1.586033 -13.807506 40.599797 7.166683 0.000000 0.000000 0.000000
-32.386345 80.202712 338.278987 3.051410 -3.365774 15.909319 -0.319902 0.007738 -15.705912 -0.140998 -0.040996 0.126828 -9.372916 1.111831 -0.837331 0.000000 0.000000 0.000000 -15.636573 -19.080858 -2.683370 13.357839 13.047746 -2.218320 -6.925660 3.366364 2.054236 -2.515892 -2.595871 -0.876106 0.000000 0.000000 0.000000 0.000000 0.000000 0.000000 16.723127 42.120996 2.893641 -154.505847 10.696636 -13.908740 -39.795198 -74.497306 -153.266354 -104.341050 -56.436411 103.337874 0.000000 0.000000 0.000000 0.000000 0.000000 0.000000 -6.318680 0.291238 -16.409493 2.207271 4.324395 0.504837 -2.933388 8.679821 3.162391 0.000000 0.000000 0.000000 -5.463931 9.255941 -14.302433 2.937480 -5.999742 -1.569127 -15.775701 44.679734 8.516826 0.000000 0.000000 0.000000
-32.326145 80.173586 338.347841 2.986154 -3.314219 15.442501 -0.281952 0.007979 -15.245091 -0.126429 -0.038108 0.125816 -10.198606 1.308851 -0.692887 0.000000 0.000000 0.000000 -15.509888 -17.028440 -2.411477 18.823693 27.306683 -5.208335 -18.146271 0.837328 4.685335 3.490326 -5.166731 -2.025349 0.000000 0.000000 0.000000 0.000000 0.000000 0.000000 14.194675 42.964025 4.242607 -154.978471 9.541721 -18.789246 -17.234923 -76.527377 -133.718949 -79.476671 -48.056174 56.522560 0.000000 0.000000 0.000000 0.000000 0.000000 0.000000 -6.290401 0.246704 -15.949262 2.262236 4.269405 0.503948 -2.280349 6.640471 2.667259 0.000000 0.000000 0.000000 -5.703518 9.345069 -13.777156 3.077605 -5.964523 -1.601392 -16.460502 47.273978 9.022107 0.000000 0.000000 0.000000
-32.267746 80.105610 338.480781 2.933259 -3.225759 14.951123 -0.228921 0.019949 -14.760297 -0.102600 -0.029126 0.125850 -10.996563 1.350903 -0.605724 0.000000 0.000000 0.000000 -16.052506 -13.691600 -2.077834 29.641874 42.688104 -12.196360 -33.111527 0.745326 3.866732 14.587594 -14.278640 -1.933424 0.000000 0.000000 0.000000 0.000000 0.000000 0.000000 12.557789 41.712731 4.823592 -153.728208 9.749275 -15.711535 -18.355223 -78.611753 -136.046379 -72.899399 -42.008349 42.248778 0.000000 0.000000 0.000000 0.000000 0.000000 0.000000 -6.294531 0.235844 -15.459863 2.382577 4.143368 0.500374 -2.216092 5.174604 2.640729 0.000000 0.000000 0.000000 -5.926193 9.554862 -13.181293 3.246098 -6.192755 -1.680293 -15.996954 48.416990 8.666173 0.000000 0.000000 0.000000
-32.229183 80.027907 338.647344 2.925124 -3.102810 14.328260 -0.154950 0.037191 -14.142302 -0.068991 -0.016663 0.128840 -11.673783 1.603906 -0.414096 0.000000 0.000000 0.000000 -16.629861 -7.335251 -1.321343 46.922877 51.300631 -23.827947 -48.778228 13.087604 2.693158 26.194725 -20.670091 6.029476 0.000000 0.000000 0.000000 0.000000 0.000000 0.000000 11.188564 36.950643 4.544967 -151.527326 8.974740 -6.351423 -36.982693 -75.620838 -149.962051 -67.956787 -31.012485 38.607416 0.000000 0.000000 0.000000 0.000000 0.000000 0.000000 -6.327511 0.162412 -14.840931 2.487593 3.999704 0.491442 -2.552530 -0.074129 3.214475 0.000000 0.000000 0.000000 -6.180559 9.881965 -12.403870 3.460344 -6.653411 -1.794282 -13.607663 46.767875 6.850332 0.000000 0.000000 0.000000
-32.241313 79.929017 338.853355 2.980705 -2.958959 13.791930 -0.083272 0.054692 -13.607492 -0.035004 -0.005137 0.134525 -12.189851 2.043927 -0.137246 0.000000 0.000000 0.000000 -16.523691 2.192163 -0.093563 66.032477 52.566824 -35.241833 19.519487 62.379227 -17.888305 -47.436984 -48.731290 -29.961391 0.000000 0.000000 0.000000 0.000000 0.000000 0.000000 9.893050 29.669205 3.618453 -151.867630 7.854550 9.128742 -10.542589 -71.237021 -112.756962 -64.454501 -14.987509 30.462133 0.000000 0.000000 0.000000 0.000000 0.000000 0.000000 -6.347416 0.118278 -14.295614 2.528029 3.874823 0.488781 -4.203710 0.784967 4.553391 0.000000 0.000000 0.000000 -6.541890 9.979998 -11.779976 3.775741 -6.855069 -1.810323 -13.147699 49.487142 6.280628 0.000000 0.000000 0.000000
-32.277164 79.813627 339.066108 3.156716 -2.775179 13.366020 -0.019951 0.069376 -13.177305 -0.014077 0.002853 0.144420 -13.079435 2.498376 0.163879 0.000000 0.000000 0.000000 -16.016103 13.479226 1.263407 83.433705 49.831656 -42.241727 54.979893 21.468935 13.672535 -65.562103 25.121088 -22.953420 0.000000 0.000000 0.000000 0.000000 0.000000 0.000000 8.639197 21.655929 2.384952 -150.584299 8.788739 29.569121 4.682062 -60.136847 -81.565574 -57.478684 -1.648015 21.117321 0.000000 0.000000 0.000000 0.000000 0.000000 0.000000 -6.462810 0.076556 -13.852847 3.109340 4.216416 0.644867 -4.070073 0.237436 3.609422 0.000000 0.000000 0.000000 -7.078115 9.949378 -11.300853 4.241913 -6.849590 -1.743494 -12.375504 48.901993 5.492577 0.000000 0.000000 0.000000
-32.368797 79.713123 339.267966 3.363960 -2.597183 13.038948 0.037949 0.071277 -12.844065 0.005252 0.005623 0.155795 -13.887699 3.046528 0.500472 0.000000 0.000000 0.000000 -14.476674 26.260494 2.457515 95.856231 41.997590 -38.612169 56.357866 5.729972 40.553044 -54.572064 55.270441 -28.739452 0.000000 0.000000 0.000000 0.000000 0.000000 0.000000 7.720095 14.605652 1.142748 -149.545423 11.682775 49.262255 1.354841 -59.247331 -76.768615 -56.461461 3.123526 16.260472 0.000000 0.000000 0.000000 0.000000 0.000000 0.000000 -6.524267 0.045172 -13.500835 2.966223 4.043989 0.622083 -5.481986 7.001146 4.500526 0.000000 0.000000 0.000000 -7.450424 10.098688 -10.874116 4.544471 -7.193847 -1.761500 -10.370514 44.017032 4.040320 0.000000 0.000000 0.000000
-32.531386 79.648833 339.459921 3.590339 -2.413456 12.801812 0.081677 0.068915 -12.600327 0.018810 0.007581 0.167214 -14.564357 3.504888 0.787384 0.000000 0.000000 0.000000 -11.829989 38.381820 2.864745 104.294068 33.818487 -26.466792 56.690779 -5.861604 66.558963 10.894736 75.570763 -94.843884 0.000000 0.000000 0.000000 0.000000 0.000000 0.000000 7.684554 8.957353 -0.017166 -149.340064 14.953635 63.891718 13.551624 -40.424120 -49.701173 -41.221414 2.052517 -9.757923 0.000000 0.000000 0.000000 0.000000 0.000000 0.000000 -6.524708 -0.000175 -13.234099 2.739565 3.874619 0.594403 -5.186209 5.368266 4.319639 0.000000 0.000000 0.000000 -7.994616 9.636259 -10.733070 5.018855 -6.714025 -1.554915 -8.808844 39.746999 2.849831 0.000000 0.000000 0.000000
-32.676745 79.516464 339.603269 3.871039 -2.210086 12.848357 0.087489 0.081913 -12.639565 0.009356 0.000436 0.178197 -15.052770 3.679039 0.927333 0.000000 0.000000 0.000000 -6.312092 47.279135 1.234433 109.916339 29.292426 -15.257650 52.235686 -14.994365 85.461911 63.163151 57.471595 -146.829829 0.000000 0.000000 0.000000 0.000000 0.000000 0.000000 7.740370 5.492950 -0.709891 -151.477293 19.050372 76.845231 19.370431 -17.625716 -31.757923 -43.326817 -6.178622 -50.022606 0.000000 0.000000 0.000000 0.000000 0.000000 0.000000 -6.586958 -0.041277 -13.251443 2.512370 3.726893 0.567998 -5.533423 10.864522 4.354705 0.000000 0.000000 0.000000 -8.483070 8.968196 -10.958308 5.354442 -5.955616 -1.310823 -7.586611 36.637930 1.912298 0.000000 0.000000 0.000000
-32.899254 79.536654 339.735763 4.030443 -2.061874 12.731452 0.114259 0.080730 -12.519697 0.012485 0.009035 0.185342 -15.391602 3.847581 1.052376 0.000000 0.000000 0.000000 1.180522 53.029285 -2.270264 113.793163 24.653944 -2.363047 41.485202 -27.208982 92.086899 77.779533 58.858812 -151.509222 0.000000 0.000000 0.000000 0.000000 0.000000 0.000000 7.841046 4.467532 -0.902585 -149.508317 20.122714 76.505705 20.926589 -6.260801 -24.598384 -43.814238 -9.638472 -63.287057 0.000000 0.000000 0.000000 0.000000 0.000000 0.000000 -6.438358 -0.100387 -13.104458 2.201063 3.587032 0.536751 -5.230778 14.438113 3.909353 0.000000 0.000000 0.000000 -8.760716 8.269222 -11.036789 5.546546 -5.072701 -1.073278 -6.587116 34.964572 1.061733 0.000000 0.000000 0.000000
